<?xml version="1.0" encoding="utf-8" standalone="no"?>
<!DOCTYPE svg PUBLIC "-//W3C//DTD SVG 1.1//EN"
  "http://www.w3.org/Graphics/SVG/1.1/DTD/svg11.dtd">
<svg xmlns:xlink="http://www.w3.org/1999/xlink" width="249.14375pt" height="251.758437pt" viewBox="0 0 249.14375 251.758437" xmlns="http://www.w3.org/2000/svg" version="1.1">
 <metadata>
  <rdf:RDF xmlns:dc="http://purl.org/dc/elements/1.1/" xmlns:cc="http://creativecommons.org/ns#" xmlns:rdf="http://www.w3.org/1999/02/22-rdf-syntax-ns#">
   <cc:Work>
    <dc:type rdf:resource="http://purl.org/dc/dcmitype/StillImage"/>
    <dc:format>image/svg+xml</dc:format>
    <dc:creator>
     <cc:Agent>
      <dc:title>Matplotlib v3.11.1, https://matplotlib.org/</dc:title>
     </cc:Agent>
    </dc:creator>
   </cc:Work>
  </rdf:RDF>
 </metadata>
 <defs>
  <style type="text/css">*{stroke-linejoin: round; stroke-linecap: butt}</style>
 </defs>
 <g id="figure_1">
  <g id="patch_1">
   <path d="M 0 251.758437 
L 249.14375 251.758437 
L 249.14375 0 
L 0 0 
L 0 251.758437 
z
" style="fill: none; opacity: 0"/>
  </g>
  <g id="axes_1">
   <g id="patch_2">
    <path d="M 23.475404 244.558437 
L 225.668346 244.558437 
L 225.668346 22.798437 
L 23.475404 22.798437 
L 23.475404 244.558437 
z
" style="fill: none; opacity: 0"/>
   </g>
   <g id="matplotlib.axis_1"/>
   <g id="matplotlib.axis_2"/>
   <g id="line2d_1">
    <path d="M 23.475404 218.469026 
L 225.668346 218.469026 
" clip-path="url(#pb631766f83)" style="fill: none; stroke: #3a3f4a; stroke-linecap: square"/>
   </g>
   <g id="line2d_2">
    <path d="M 56.087169 244.558437 
L 56.087169 22.798437 
" clip-path="url(#pb631766f83)" style="fill: none; stroke: #3a3f4a; stroke-linecap: square"/>
   </g>
   <g id="line2d_3">
    <defs>
     <path id="m32ea84d7b4" d="M 0 3 
C 0.795609 3 1.55874 2.683901 2.12132 2.12132 
C 2.683901 1.55874 3 0.795609 3 0 
C 3 -0.795609 2.683901 -1.55874 2.12132 -2.12132 
C 1.55874 -2.683901 0.795609 -3 0 -3 
C -0.795609 -3 -1.55874 -2.683901 -2.12132 -2.12132 
C -2.683901 -1.55874 -3 -0.795609 -3 0 
C -3 0.795609 -2.683901 1.55874 -2.12132 2.12132 
C -1.55874 2.683901 -0.795609 3 0 3 
z
" style="stroke: #b39ddb"/>
    </defs>
    <g clip-path="url(#pb631766f83)">
     <use xlink:href="#m32ea84d7b4" x="121.310699" y="218.469026" style="fill: #b39ddb; stroke: #b39ddb"/>
    </g>
   </g>
   <g id="line2d_4">
    <defs>
     <path id="m6b2a1c1e8f" d="M 0 3 
C 0.795609 3 1.55874 2.683901 2.12132 2.12132 
C 2.683901 1.55874 3 0.795609 3 0 
C 3 -0.795609 2.683901 -1.55874 2.12132 -2.12132 
C 1.55874 -2.683901 0.795609 -3 0 -3 
C -0.795609 -3 -1.55874 -2.683901 -2.12132 -2.12132 
C -2.683901 -1.55874 -3 -0.795609 -3 0 
C -3 0.795609 -2.683901 1.55874 -2.12132 2.12132 
C -1.55874 2.683901 -0.795609 3 0 3 
z
" style="stroke: #a5d6a7"/>
    </defs>
    <g clip-path="url(#pb631766f83)">
     <use xlink:href="#m6b2a1c1e8f" x="121.310699" y="185.857261" style="fill: #a5d6a7; stroke: #a5d6a7"/>
    </g>
   </g>
   <g id="line2d_5">
    <defs>
     <path id="m3335608a2b" d="M 0 -7 
L -1.571598 -2.163119 
L -6.657396 -2.163119 
L -2.542899 0.826238 
L -4.114497 5.663119 
L -0 2.673762 
L 4.114497 5.663119 
L 2.542899 0.826238 
L 6.657396 -2.163119 
L 1.571598 -2.163119 
z
" style="stroke: #ef9a9a; stroke-linejoin: bevel"/>
    </defs>
    <g clip-path="url(#pb631766f83)">
     <use xlink:href="#m3335608a2b" x="121.310699" y="55.410202" style="fill: #ef9a9a; stroke: #ef9a9a; stroke-linejoin: bevel"/>
    </g>
   </g>
   <g id="line2d_6">
    <path d="M 121.310699 185.857261 
L 121.310699 55.410202 
" clip-path="url(#pb631766f83)" style="fill: none; stroke-dasharray: 1,1.65; stroke-dashoffset: 0; stroke: #ef9a9a"/>
   </g>
   <g id="patch_3">
    <path d="M 56.087169 218.469026 
Q 70.762463 218.469026 83.87251 218.469026 
" style="fill: none; stroke: #9aa0aa; stroke-width: 1.4; stroke-linecap: round"/>
    <path d="M 79.87251 216.469026 
L 83.87251 218.469026 
L 79.87251 220.469026 
z
" style="fill: #9aa0aa; stroke: #9aa0aa; stroke-width: 1.4; stroke-linecap: round"/>
   </g>
   <g id="text_1">
    <!-- $x_{map}$ -->
    <g style="fill: #9aa0aa" transform="translate(90.65564 210.251143)">
     <text>
      <tspan x="0" y="-0.53125" style="font-style: oblique; font-size: 10px; font-family: 'DejaVu Sans'; fill: #9aa0aa">x</tspan>
      <tspan x="5.917969" y="0.968745" style="font-style: oblique; font-size: 7px; font-family: 'DejaVu Sans'; fill: #9aa0aa">m</tspan>
      <tspan x="12.736816" y="0.968745" style="font-style: oblique; font-size: 7px; font-family: 'DejaVu Sans'; fill: #9aa0aa">a</tspan>
      <tspan x="17.026367" y="0.968745" style="font-style: oblique; font-size: 7px; font-family: 'DejaVu Sans'; fill: #9aa0aa">p</tspan>
     </text>
    </g>
   </g>
   <g id="patch_4">
    <path d="M 56.087169 218.469026 
Q 56.087169 203.793732 56.087169 190.683685 
" style="fill: none; stroke: #9aa0aa; stroke-width: 1.4; stroke-linecap: round"/>
    <path d="M 54.087169 194.683685 
L 56.087169 190.683685 
L 58.087169 194.683685 
z
" style="fill: #9aa0aa; stroke: #9aa0aa; stroke-width: 1.4; stroke-linecap: round"/>
   </g>
   <g id="text_2">
    <!-- $y_{map}$ -->
    <g style="fill: #9aa0aa" transform="translate(61.305051 180.900555)">
     <text>
      <tspan x="0" y="-0.53125" style="font-style: oblique; font-size: 10px; font-family: 'DejaVu Sans'; fill: #9aa0aa">y</tspan>
      <tspan x="5.917969" y="0.968745" style="font-style: oblique; font-size: 7px; font-family: 'DejaVu Sans'; fill: #9aa0aa">m</tspan>
      <tspan x="12.736816" y="0.968745" style="font-style: oblique; font-size: 7px; font-family: 'DejaVu Sans'; fill: #9aa0aa">a</tspan>
      <tspan x="17.026367" y="0.968745" style="font-style: oblique; font-size: 7px; font-family: 'DejaVu Sans'; fill: #9aa0aa">p</tspan>
     </text>
    </g>
   </g>
   <g id="patch_5">
    <path d="M 121.310699 218.469026 
Q 121.310699 203.793732 121.310699 191.130899 
" style="fill: none; stroke: #b39ddb; stroke-width: 1.8; stroke-linecap: round"/>
    <path d="M 119.310699 195.130899 
L 121.310699 191.130899 
L 123.310699 195.130899 
z
" style="fill: #b39ddb; stroke: #b39ddb; stroke-width: 1.8; stroke-linecap: round"/>
   </g>
   <g id="text_3">
    <!-- $x_{base}$ -->
    <g style="fill: #b39ddb" transform="translate(126.528581 181.498211)">
     <text>
      <tspan x="0" y="-0.53125" style="font-style: oblique; font-size: 10px; font-family: 'DejaVu Sans'; fill: #b39ddb">x</tspan>
      <tspan x="5.917969" y="0.968745" style="font-style: oblique; font-size: 7px; font-family: 'DejaVu Sans'; fill: #b39ddb">b</tspan>
      <tspan x="10.361328" y="0.968745" style="font-style: oblique; font-size: 7px; font-family: 'DejaVu Sans'; fill: #b39ddb">a</tspan>
      <tspan x="14.650879" y="0.968745" style="font-style: oblique; font-size: 7px; font-family: 'DejaVu Sans'; fill: #b39ddb">s</tspan>
      <tspan x="18.297852" y="0.968745" style="font-style: oblique; font-size: 7px; font-family: 'DejaVu Sans'; fill: #b39ddb">e</tspan>
     </text>
    </g>
   </g>
   <g id="text_4">
    <text style="font-size: 9px; font-family: 'DejaVu Sans', 'Bitstream Vera Sans', 'Computer Modern Sans Serif', 'Lucida Grande', 'Verdana', 'Geneva', 'Lucid', 'Arial', 'Helvetica', 'Avant Garde', sans-serif; fill: #b39ddb" transform="translate(127.833051 222.016444)">base</text>
    <text style="font-size: 9px; font-family: 'DejaVu Sans', 'Bitstream Vera Sans', 'Computer Modern Sans Serif', 'Lucida Grande', 'Verdana', 'Geneva', 'Lucid', 'Arial', 'Helvetica', 'Avant Garde', sans-serif; fill: #b39ddb" transform="translate(127.833051 232.818202)">(1.0, 0.0)</text>
   </g>
   <g id="patch_6">
    <path d="M 121.310699 185.857261 
Q 121.310699 171.181967 121.310699 158.519134 
" style="fill: none; stroke: #a5d6a7; stroke-width: 1.8; stroke-linecap: round"/>
    <path d="M 119.310699 162.519134 
L 121.310699 158.519134 
L 123.310699 162.519134 
z
" style="fill: #a5d6a7; stroke: #a5d6a7; stroke-width: 1.8; stroke-linecap: round"/>
   </g>
   <g id="text_5">
    <!-- $x_{lidar}$ -->
    <g style="fill: #a5d6a7" transform="translate(126.528581 148.886447)">
     <text>
      <tspan x="0" y="-0.53125" style="font-style: oblique; font-size: 10px; font-family: 'DejaVu Sans'; fill: #a5d6a7">x</tspan>
      <tspan x="5.917969" y="0.968745" style="font-style: oblique; font-size: 7px; font-family: 'DejaVu Sans'; fill: #a5d6a7">l</tspan>
      <tspan x="7.862793" y="0.968745" style="font-style: oblique; font-size: 7px; font-family: 'DejaVu Sans'; fill: #a5d6a7">i</tspan>
      <tspan x="9.807617" y="0.968745" style="font-style: oblique; font-size: 7px; font-family: 'DejaVu Sans'; fill: #a5d6a7">d</tspan>
      <tspan x="14.250977" y="0.968745" style="font-style: oblique; font-size: 7px; font-family: 'DejaVu Sans'; fill: #a5d6a7">a</tspan>
      <tspan x="18.540527" y="0.968745" style="font-style: oblique; font-size: 7px; font-family: 'DejaVu Sans'; fill: #a5d6a7">r</tspan>
     </text>
    </g>
   </g>
   <g id="text_6">
    <text style="font-size: 9px; font-family: 'DejaVu Sans', 'Bitstream Vera Sans', 'Computer Modern Sans Serif', 'Lucida Grande', 'Verdana', 'Geneva', 'Lucid', 'Arial', 'Helvetica', 'Avant Garde', sans-serif; fill: #a5d6a7" transform="translate(127.833051 189.40468)">lidar</text>
    <text style="font-size: 9px; font-family: 'DejaVu Sans', 'Bitstream Vera Sans', 'Computer Modern Sans Serif', 'Lucida Grande', 'Verdana', 'Geneva', 'Lucid', 'Arial', 'Helvetica', 'Avant Garde', sans-serif; fill: #a5d6a7" transform="translate(127.833051 200.206437)">(1.0, 0.5)</text>
   </g>
   <g id="text_7">
    <text style="font-size: 9px; font-family: 'DejaVu Sans', 'Bitstream Vera Sans', 'Computer Modern Sans Serif', 'Lucida Grande', 'Verdana', 'Geneva', 'Lucid', 'Arial', 'Helvetica', 'Avant Garde', sans-serif; fill: #ef9a9a" transform="translate(127.833051 52.347565)">detection</text>
    <text style="font-size: 9px; font-family: 'DejaVu Sans', 'Bitstream Vera Sans', 'Computer Modern Sans Serif', 'Lucida Grande', 'Verdana', 'Geneva', 'Lucid', 'Arial', 'Helvetica', 'Avant Garde', sans-serif; fill: #ef9a9a" transform="translate(127.833051 63.149323)">(1.0, 2.5)</text>
   </g>
   <g id="text_8">
    <text style="font-size: 10px; font-family: 'DejaVu Sans', 'Bitstream Vera Sans', 'Computer Modern Sans Serif', 'Lucida Grande', 'Verdana', 'Geneva', 'Lucid', 'Arial', 'Helvetica', 'Avant Garde', sans-serif; text-anchor: middle; fill: #e2e4e9" x="124.571875" y="14.798437" transform="rotate(-0 124.571875 14.798437)">2 m ahead of a sensor that is itself rotated 90°</text>
   </g>
  </g>
 </g>
 <defs>
  <clipPath id="pb631766f83">
   <rect x="23.475404" y="22.798437" width="202.192941" height="221.76"/>
  </clipPath>
 </defs>
</svg>
