<?xml version="1.0" encoding="utf-8" standalone="no"?>
<!DOCTYPE svg PUBLIC "-//W3C//DTD SVG 1.1//EN"
  "http://www.w3.org/Graphics/SVG/1.1/DTD/svg11.dtd">
<svg xmlns:xlink="http://www.w3.org/1999/xlink" width="453.6pt" height="208.478437pt" viewBox="0 0 453.6 208.478437" xmlns="http://www.w3.org/2000/svg" version="1.1">
 <metadata>
  <rdf:RDF xmlns:dc="http://purl.org/dc/elements/1.1/" xmlns:cc="http://creativecommons.org/ns#" xmlns:rdf="http://www.w3.org/1999/02/22-rdf-syntax-ns#">
   <cc:Work>
    <dc:type rdf:resource="http://purl.org/dc/dcmitype/StillImage"/>
    <dc:format>image/svg+xml</dc:format>
    <dc:creator>
     <cc:Agent>
      <dc:title>Matplotlib v3.11.1, https://matplotlib.org/</dc:title>
     </cc:Agent>
    </dc:creator>
   </cc:Work>
  </rdf:RDF>
 </metadata>
 <defs>
  <style type="text/css">*{stroke-linejoin: round; stroke-linecap: butt}</style>
 </defs>
 <g id="figure_1">
  <g id="patch_1">
   <path d="M 0 208.478437 
L 453.6 208.478437 
L 453.6 0 
L 0 0 
L 0 208.478437 
z
" style="fill: none; opacity: 0"/>
  </g>
  <g id="axes_1">
   <g id="patch_2">
    <path d="M 7.2 201.278437 
L 446.4 201.278437 
L 446.4 22.798437 
L 7.2 22.798437 
L 7.2 201.278437 
z
" style="fill: none; opacity: 0"/>
   </g>
   <g id="matplotlib.axis_1"/>
   <g id="matplotlib.axis_2"/>
   <g id="line2d_1">
    <path d="M 72.930612 66.212492 
L 102.808163 58.118234 
L 132.685714 52.005732 
L 162.563265 49.371541 
L 192.440816 50.860602 
L 222.318367 56.108341 
L 252.195918 63.829928 
L 282.073469 72.13485 
" clip-path="url(#pa505b4af25)" style="fill: none; stroke-dasharray: 4.44,1.92; stroke-dashoffset: 0; stroke: #6b7280; stroke-width: 1.2"/>
    <defs>
     <path id="mf6a5a8d81b" d="M 0 2 
C 0.530406 2 1.03916 1.789267 1.414214 1.414214 
C 1.789267 1.03916 2 0.530406 2 0 
C 2 -0.530406 1.789267 -1.03916 1.414214 -1.414214 
C 1.03916 -1.789267 0.530406 -2 0 -2 
C -0.530406 -2 -1.03916 -1.789267 -1.414214 -1.414214 
C -1.789267 -1.03916 -2 -0.530406 -2 0 
C -2 0.530406 -1.789267 1.03916 -1.414214 1.414214 
C -1.03916 1.789267 -0.530406 2 0 2 
z
" style="stroke: #6b7280"/>
    </defs>
    <g clip-path="url(#pa505b4af25)">
     <use xlink:href="#mf6a5a8d81b" x="72.930612" y="66.212492" style="fill: #6b7280; stroke: #6b7280"/>
     <use xlink:href="#mf6a5a8d81b" x="102.808163" y="58.118234" style="fill: #6b7280; stroke: #6b7280"/>
     <use xlink:href="#mf6a5a8d81b" x="132.685714" y="52.005732" style="fill: #6b7280; stroke: #6b7280"/>
     <use xlink:href="#mf6a5a8d81b" x="162.563265" y="49.371541" style="fill: #6b7280; stroke: #6b7280"/>
     <use xlink:href="#mf6a5a8d81b" x="192.440816" y="50.860602" style="fill: #6b7280; stroke: #6b7280"/>
     <use xlink:href="#mf6a5a8d81b" x="222.318367" y="56.108341" style="fill: #6b7280; stroke: #6b7280"/>
     <use xlink:href="#mf6a5a8d81b" x="252.195918" y="63.829928" style="fill: #6b7280; stroke: #6b7280"/>
     <use xlink:href="#mf6a5a8d81b" x="282.073469" y="72.13485" style="fill: #6b7280; stroke: #6b7280"/>
    </g>
   </g>
   <g id="line2d_2">
    <path d="M 72.930612 66.212492 
L 102.808163 58.118234 
" clip-path="url(#pa505b4af25)" style="fill: none; stroke: #5e35b1; stroke-width: 3; stroke-linecap: square"/>
   </g>
   <g id="line2d_3">
    <defs>
     <path id="m036eb4b1ab" d="M 0 3.5 
C 0.928211 3.5 1.81853 3.131218 2.474874 2.474874 
C 3.131218 1.81853 3.5 0.928211 3.5 0 
C 3.5 -0.928211 3.131218 -1.81853 2.474874 -2.474874 
C 1.81853 -3.131218 0.928211 -3.5 0 -3.5 
C -0.928211 -3.5 -1.81853 -3.131218 -2.474874 -2.474874 
C -3.131218 -1.81853 -3.5 -0.928211 -3.5 0 
C -3.5 0.928211 -3.131218 1.81853 -2.474874 2.474874 
C -1.81853 3.131218 -0.928211 3.5 0 3.5 
z
" style="stroke: #5e35b1"/>
    </defs>
    <g clip-path="url(#pa505b4af25)">
     <use xlink:href="#m036eb4b1ab" x="72.930612" y="66.212492" style="fill: #5e35b1; stroke: #5e35b1"/>
    </g>
   </g>
   <g id="line2d_4">
    <path d="M 102.808163 114.450329 
L 132.685714 106.356071 
L 162.563265 100.24357 
L 192.440816 97.609379 
L 222.318367 99.09844 
L 252.195918 104.346179 
L 282.073469 112.067766 
L 311.95102 120.372688 
" clip-path="url(#pa505b4af25)" style="fill: none; stroke-dasharray: 4.44,1.92; stroke-dashoffset: 0; stroke: #6b7280; stroke-width: 1.2"/>
    <g clip-path="url(#pa505b4af25)">
     <use xlink:href="#mf6a5a8d81b" x="102.808163" y="114.450329" style="fill: #6b7280; stroke: #6b7280"/>
     <use xlink:href="#mf6a5a8d81b" x="132.685714" y="106.356071" style="fill: #6b7280; stroke: #6b7280"/>
     <use xlink:href="#mf6a5a8d81b" x="162.563265" y="100.24357" style="fill: #6b7280; stroke: #6b7280"/>
     <use xlink:href="#mf6a5a8d81b" x="192.440816" y="97.609379" style="fill: #6b7280; stroke: #6b7280"/>
     <use xlink:href="#mf6a5a8d81b" x="222.318367" y="99.09844" style="fill: #6b7280; stroke: #6b7280"/>
     <use xlink:href="#mf6a5a8d81b" x="252.195918" y="104.346179" style="fill: #6b7280; stroke: #6b7280"/>
     <use xlink:href="#mf6a5a8d81b" x="282.073469" y="112.067766" style="fill: #6b7280; stroke: #6b7280"/>
     <use xlink:href="#mf6a5a8d81b" x="311.95102" y="120.372688" style="fill: #6b7280; stroke: #6b7280"/>
    </g>
   </g>
   <g id="line2d_5">
    <path d="M 102.808163 114.450329 
L 132.685714 106.356071 
" clip-path="url(#pa505b4af25)" style="fill: none; stroke: #5e35b1; stroke-width: 3; stroke-linecap: square"/>
   </g>
   <g id="line2d_6">
    <g clip-path="url(#pa505b4af25)">
     <use xlink:href="#m036eb4b1ab" x="102.808163" y="114.450329" style="fill: #5e35b1; stroke: #5e35b1"/>
    </g>
   </g>
   <g id="line2d_7">
    <path d="M 132.685714 162.688167 
L 162.563265 154.593909 
L 192.440816 148.481408 
L 222.318367 145.847217 
L 252.195918 147.336278 
L 282.073469 152.584016 
L 311.95102 160.305604 
L 341.828571 168.610526 
" clip-path="url(#pa505b4af25)" style="fill: none; stroke-dasharray: 4.44,1.92; stroke-dashoffset: 0; stroke: #6b7280; stroke-width: 1.2"/>
    <g clip-path="url(#pa505b4af25)">
     <use xlink:href="#mf6a5a8d81b" x="132.685714" y="162.688167" style="fill: #6b7280; stroke: #6b7280"/>
     <use xlink:href="#mf6a5a8d81b" x="162.563265" y="154.593909" style="fill: #6b7280; stroke: #6b7280"/>
     <use xlink:href="#mf6a5a8d81b" x="192.440816" y="148.481408" style="fill: #6b7280; stroke: #6b7280"/>
     <use xlink:href="#mf6a5a8d81b" x="222.318367" y="145.847217" style="fill: #6b7280; stroke: #6b7280"/>
     <use xlink:href="#mf6a5a8d81b" x="252.195918" y="147.336278" style="fill: #6b7280; stroke: #6b7280"/>
     <use xlink:href="#mf6a5a8d81b" x="282.073469" y="152.584016" style="fill: #6b7280; stroke: #6b7280"/>
     <use xlink:href="#mf6a5a8d81b" x="311.95102" y="160.305604" style="fill: #6b7280; stroke: #6b7280"/>
     <use xlink:href="#mf6a5a8d81b" x="341.828571" y="168.610526" style="fill: #6b7280; stroke: #6b7280"/>
    </g>
   </g>
   <g id="line2d_8">
    <path d="M 132.685714 162.688167 
L 162.563265 154.593909 
" clip-path="url(#pa505b4af25)" style="fill: none; stroke: #5e35b1; stroke-width: 3; stroke-linecap: square"/>
   </g>
   <g id="line2d_9">
    <g clip-path="url(#pa505b4af25)">
     <use xlink:href="#m036eb4b1ab" x="132.685714" y="162.688167" style="fill: #5e35b1; stroke: #5e35b1"/>
    </g>
   </g>
   <g id="text_1">
    <!-- $k=0$ -->
    <g style="fill: #22272e" transform="translate(32.954082 68.551437)">
     <text>
      <tspan x="0" y="-0.15625" style="font-style: oblique; font-size: 9px; font-family: 'DejaVu Sans'; fill: #22272e">k</tspan>
      <tspan x="6.965332" y="-0.15625" style="font-size: 9px; font-family: 'DejaVu Sans'; fill: #22272e">=</tspan>
      <tspan x="16.259766" y="-0.15625" style="font-size: 9px; font-family: 'DejaVu Sans'; fill: #22272e">0</tspan>
     </text>
    </g>
   </g>
   <g id="text_2">
    <text style="font-size: 9px; font-family: 'DejaVu Sans', 'Bitstream Vera Sans', 'Computer Modern Sans Serif', 'Lucida Grande', 'Verdana', 'Geneva', 'Lucid', 'Arial', 'Helvetica', 'Avant Garde', sans-serif; text-anchor: start; fill: #6b7280" x="288.04898" y="74.473092" transform="rotate(-0 288.04898 74.473092)">planned horizon</text>
   </g>
   <g id="text_3">
    <text style="font-size: 9px; font-family: 'DejaVu Sans', 'Bitstream Vera Sans', 'Computer Modern Sans Serif', 'Lucida Grande', 'Verdana', 'Geneva', 'Lucid', 'Arial', 'Helvetica', 'Avant Garde', sans-serif; text-anchor: start; fill: #5e35b1" x="107.289796" y="47.505909" transform="rotate(-0 107.289796 47.505909)">executed</text>
   </g>
   <g id="text_4">
    <!-- $k=1$ -->
    <g style="fill: #22272e" transform="translate(62.831633 116.789275)">
     <text>
      <tspan x="0" y="-0.15625" style="font-style: oblique; font-size: 9px; font-family: 'DejaVu Sans'; fill: #22272e">k</tspan>
      <tspan x="6.965332" y="-0.15625" style="font-size: 9px; font-family: 'DejaVu Sans'; fill: #22272e">=</tspan>
      <tspan x="16.259766" y="-0.15625" style="font-size: 9px; font-family: 'DejaVu Sans'; fill: #22272e">1</tspan>
     </text>
    </g>
   </g>
   <g id="text_5">
    <!-- $k=2$ -->
    <g style="fill: #22272e" transform="translate(92.709184 165.027113)">
     <text>
      <tspan x="0" y="-0.15625" style="font-style: oblique; font-size: 9px; font-family: 'DejaVu Sans'; fill: #22272e">k</tspan>
      <tspan x="6.965332" y="-0.15625" style="font-size: 9px; font-family: 'DejaVu Sans'; fill: #22272e">=</tspan>
      <tspan x="16.259766" y="-0.15625" style="font-size: 9px; font-family: 'DejaVu Sans'; fill: #22272e">2</tspan>
     </text>
    </g>
   </g>
   <g id="text_6">
    <text style="font-size: 10px; font-family: 'DejaVu Sans', 'Bitstream Vera Sans', 'Computer Modern Sans Serif', 'Lucida Grande', 'Verdana', 'Geneva', 'Lucid', 'Arial', 'Helvetica', 'Avant Garde', sans-serif; text-anchor: middle; fill: #22272e" x="226.8" y="14.798437" transform="rotate(-0 226.8 14.798437)">Each cycle re-plans the whole horizon and executes one step</text>
   </g>
  </g>
 </g>
 <defs>
  <clipPath id="pa505b4af25">
   <rect x="7.2" y="22.798437" width="439.2" height="178.48"/>
  </clipPath>
 </defs>
</svg>
